<svg width="52" height="25" viewBox="0 0 52 25" fill="none" xmlns="http://www.w3.org/2000/svg">
<path d="M23.8895 18.2652V13.2265H27.7017V11.6851H23.8895V8.28729H28.779V6.74586H22V18.2652H23.8895ZM32.4254 18.2652V6H30.5359V18.2652H32.4254ZM38.8398 18.4144C39.9116 18.4144 40.8094 18.1464 41.5331 17.6105C42.2569 17.0746 42.7569 16.3867 43.0331 15.547H40.9945C40.5746 16.3978 39.8564 16.8232 38.8398 16.8232C38.1326 16.8232 37.5359 16.6022 37.0497 16.1602C36.5635 15.7182 36.2928 15.1326 36.2376 14.4033H43.2155C43.2597 14.1271 43.2818 13.8177 43.2818 13.4751C43.2818 12.5912 43.0939 11.8094 42.7182 11.1298C42.3425 10.4503 41.8177 9.92265 41.1436 9.54696C40.4696 9.17127 39.7017 8.98343 38.8398 8.98343C37.9448 8.98343 37.1519 9.1768 36.4613 9.56354C35.7707 9.95028 35.2348 10.5 34.8536 11.2127C34.4724 11.9254 34.2818 12.7514 34.2818 13.6906C34.2818 14.6298 34.4779 15.4558 34.8702 16.1685C35.2624 16.8812 35.8039 17.4337 36.4945 17.826C37.1851 18.2182 37.9669 18.4144 38.8398 18.4144ZM36.2541 12.8785C36.3425 12.1713 36.6188 11.6105 37.0829 11.1961C37.547 10.7818 38.105 10.5746 38.7569 10.5746C39.4751 10.5746 40.0773 10.7845 40.5635 11.2044C41.0497 11.6243 41.2983 12.1823 41.3094 12.8785H36.2541ZM46.0331 18.2652L47.8895 15.1657L49.8619 18.2652H52L49.0497 13.6409L52 9.1326H50.0276L48.1713 12.232L46.1989 9.1326H44.0608L47.0111 13.7735L44.0608 18.2652H46.0331Z" fill="#414246"/>
<path fill-rule="evenodd" clip-rule="evenodd" d="M11.4105 0L0 14.0828H7.26947L4.0258 24.5966L16.6234 10.7021H9.30435L11.4105 0Z" fill="#414246"/>
</svg>
